<?xml version="1.0" standalone="no"?><!DOCTYPE svg PUBLIC "-//W3C//DTD SVG 1.1//EN" "http://www.w3.org/Graphics/SVG/1.1/DTD/svg11.dtd"><svg t="1584972763422" class="icon" viewBox="0 0 1024 1024" version="1.1" xmlns="http://www.w3.org/2000/svg" p-id="1931" xmlns:xlink="http://www.w3.org/1999/xlink" width="200" height="200"><defs><style type="text/css"></style></defs><path d="M843.811413 1013.333333a170.666667 170.666667 0 0 1-120.746666-49.493333l-213.333334-215.466667A384 384 0 0 1 34.851413 225.706667a42.666667 42.666667 0 0 1 31.573334-24.32 42.666667 42.666667 0 0 1 37.546666 11.946666l137.386667 136.96a85.333333 85.333333 0 0 0 120.32-120.746666l-132.266667-132.693334a42.666667 42.666667 0 0 1-11.52-38.826666A42.666667 42.666667 0 0 1 243.91808 27.306667 377.173333 377.173333 0 0 1 384.71808 0a384 384 0 0 1 363.946667 506.453333l215.893333 213.333334a170.666667 170.666667 0 0 1-120.746667 290.986666z m-325.546666-357.12a42.666667 42.666667 0 0 1 30.293333 12.373334l234.666667 234.666666a85.333333 85.333333 0 1 0 120.746666-120.746666l-235.093333-235.093334a42.666667 42.666667 0 0 1-8.96-46.506666A298.666667 298.666667 0 0 0 384.71808 85.333333a352.426667 352.426667 0 0 0-42.666667 2.986667L422.264747 170.666667a170.666667 170.666667 0 1 1-241.493334 239.786666L92.451413 322.133333A305.493333 305.493333 0 0 0 86.051413 384a298.666667 298.666667 0 0 0 298.666667 298.666667 304.213333 304.213333 0 0 0 116.906667-23.466667 38.826667 38.826667 0 0 1 16.64-2.986667z" p-id="1932"></path></svg>